<svg width="200" height="200" viewBox="0 0 200 200" fill="none" xmlns="http://www.w3.org/2000/svg">
<path fill-rule="evenodd" clip-rule="evenodd" d="M100 0C155.176 0 200 44.8235 200 100C200 155.176 155.176 200 100 200C44.8235 200 0 155.176 0 100C0 82 4.82354 64.3529 14 49.0589L17.6471 42.9411L20.7058 45.6471L66 90.9411C65.1424 93.8844 64.7067 96.9344 64.7058 100C64.7058 119.412 80.5882 135.294 100 135.294C119.412 135.294 135.294 119.412 135.294 100C135.294 80.5882 119.412 64.7058 100 64.7058C98 64.7058 96 64.9412 94.1177 65.2942V0H100ZM33.5765 25.2471L88.1177 79.8C91.6236 77.7411 95.6472 76.4706 100 76.4706C112.977 76.4706 123.529 87.0235 123.529 100C123.529 112.976 112.976 123.529 100 123.529C87.0235 123.529 76.4706 112.976 76.4706 100C76.4706 95.6471 77.7411 91.6235 79.8 88.1177L25.2471 33.5764L33.5765 25.2471Z" fill="#7b2cbf"/>
</svg>
